<svg width="800" height="400" viewBox="0 0 800 400" fill="none" xmlns="http://www.w3.org/2000/svg">
  <!-- Background Gradient -->
  <defs>
    <linearGradient id="bgGradient" x1="0%" y1="0%" x2="100%" y2="100%">
      <stop offset="0%" style="stop-color:#8B5CF6;stop-opacity:1" />
      <stop offset="50%" style="stop-color:#A855F7;stop-opacity:1" />
      <stop offset="100%" style="stop-color:#7C3AED;stop-opacity:1" />
    </linearGradient>
    <linearGradient id="cardGradient" x1="0%" y1="0%" x2="100%" y2="100%">
      <stop offset="0%" style="stop-color:#FFFFFF;stop-opacity:1" />
      <stop offset="100%" style="stop-color:#F8FAFC;stop-opacity:1" />
    </linearGradient>
  </defs>
  
  <!-- Background -->
  <rect width="800" height="400" fill="url(#bgGradient)"/>
  
  <!-- Main Card -->
  <rect x="50" y="50" width="700" height="300" rx="24" fill="url(#cardGradient)" stroke="rgba(139, 92, 246, 0.1)" stroke-width="1"/>
  
  <!-- Card Shadow -->
  <rect x="50" y="50" width="700" height="300" rx="24" fill="none" stroke="rgba(139, 92, 246, 0.15)" stroke-width="2"/>
  
  <!-- Ticket Notches -->
  <rect x="50" y="170" width="700" height="2" fill="none" stroke="#D1D5DB" stroke-width="2" stroke-dasharray="6,4"/>
  <rect x="50" y="230" width="700" height="2" fill="none" stroke="#D1D5DB" stroke-width="2" stroke-dasharray="6,4"/>
  
  <!-- Side Circles -->
  <circle cx="26" cy="200" r="12" fill="#8B5CF6"/>
  <circle cx="774" cy="200" r="12" fill="#8B5CF6"/>
  
  <!-- Header Section -->
  <text x="100" y="100" font-family="Arial, sans-serif" font-size="14" font-weight="600" fill="#6B7280" text-transform="uppercase">VOO</text>
  <text x="100" y="125" font-family="Arial, sans-serif" font-size="24" font-weight="bold" fill="#1F2937">RS995</text>
  
  <text x="650" y="100" font-family="Arial, sans-serif" font-size="14" font-weight="600" fill="#6B7280" text-transform="uppercase">DATA</text>
  <text x="650" y="125" font-family="Arial, sans-serif" font-size="24" font-weight="bold" fill="#1F2937">03/03/2023</text>
  
  <!-- Route Section -->
  <text x="150" y="160" font-family="Arial, sans-serif" font-size="12" font-weight="500" fill="#6B7280" text-transform="uppercase">São Paulo, Brasil</text>
  <text x="150" y="185" font-family="Arial, sans-serif" font-size="36" font-weight="bold" fill="#1F2937">GRU</text>
  <text x="150" y="205" font-family="Arial, sans-serif" font-size="14" font-weight="500" fill="#1F2937">17:00</text>
  
  <!-- Plane Icon -->
  <circle cx="400" cy="200" r="20" fill="white" stroke="#8B5CF6" stroke-width="2"/>
  <path d="M390 200 L410 200 M400 190 L400 210" stroke="#8B5CF6" stroke-width="2" fill="none"/>
  
  <text x="550" y="160" font-family="Arial, sans-serif" font-size="12" font-weight="500" fill="#6B7280" text-transform="uppercase">San Francisco, EUA</text>
  <text x="550" y="185" font-family="Arial, sans-serif" font-size="36" font-weight="bold" fill="#1F2937">SFO</text>
  <text x="550" y="205" font-family="Arial, sans-serif" font-size="14" font-weight="500" fill="#1F2937">21:10</text>
  
  <!-- Passenger Info -->
  <rect x="100" y="250" width="600" height="60" rx="12" fill="#F3F4F6"/>
  <text x="120" y="275" font-family="Arial, sans-serif" font-size="12" font-weight="500" fill="#6B7280" text-transform="uppercase">Passageiro</text>
  <text x="120" y="295" font-family="Arial, sans-serif" font-size="18" font-weight="bold" fill="#1F2937">Rodrigo Terron</text>
  
  <text x="580" y="275" font-family="Arial, sans-serif" font-size="12" font-weight="500" fill="#6B7280" text-transform="uppercase">Assento</text>
  <text x="580" y="295" font-family="Arial, sans-serif" font-size="18" font-weight="bold" fill="#1F2937">28A</text>
  
  <!-- QR Code Placeholder -->
  <rect x="600" y="100" width="80" height="80" rx="8" fill="white" stroke="#E5E7EB" stroke-width="1"/>
  <rect x="610" y="110" width="60" height="60" fill="#1F2937"/>
  <rect x="620" y="120" width="8" height="8" fill="white"/>
  <rect x="640" y="120" width="8" height="8" fill="white"/>
  <rect x="660" y="120" width="8" height="8" fill="white"/>
  <rect x="620" y="140" width="8" height="8" fill="white"/>
  <rect x="640" y="140" width="8" height="8" fill="#1F2937"/>
  <rect x="660" y="140" width="8" height="8" fill="white"/>
  <rect x="620" y="160" width="8" height="8" fill="white"/>
  <rect x="640" y="160" width="8" height="8" fill="white"/>
  <rect x="660" y="160" width="8" height="8" fill="white"/>
  
  <!-- Project Title -->
  <text x="400" y="30" font-family="Arial, sans-serif" font-size="28" font-weight="bold" fill="white" text-anchor="middle">Sistema de Reservas de Voo</text>
  <text x="400" y="50" font-family="Arial, sans-serif" font-size="14" font-weight="500" fill="rgba(255,255,255,0.8)" text-anchor="middle">Desafio Dev Day 2025 - Luan Oliveira dos Santos</text>
</svg>
